<?xml version="1.0" encoding="UTF-8"?>
<svg xmlns="http://www.w3.org/2000/svg" viewBox="0 0 4309.36 4309.36">
  <defs>
    <style>
      .cls-1 {
        fill: #fff;
      }

      .cls-1, .cls-2 {
        stroke: #fff;
        stroke-miterlimit: 10;
      }

      .cls-2 {
        fill: none;
        stroke-width: 70px;
      }
    </style>
  </defs>
  <g id="Layer_2" data-name="Layer 2">
    <rect class="cls-2" x="35" y="35" width="4239.36" height="4239.36" rx="400" ry="400"/>
  </g>
  <g id="Layer_1" data-name="Layer 1">
    <g>
      <g>
        <path class="cls-1" d="M2839.63,3026.06c62.91,5.59,132.15,41.13,152,95.98,34.2,94.5-29.28,182.37-115.17,234.49l177.91,258.04c11.66,9.99,37.55,6.29,52.58,6.96l-.02,13.67h-107.31l-191.21-266.93h-130.72v249.82l66.35,3.44-.02,13.67h-199.01l1.73-10.46,54.2-7.22,6.52-7.97-1.7-563.19-56.94-8.24-3.81-12.06h294.62ZM2849.38,3354.59c22.6-30.54,50.71-56.11,66.43-90.61,41.28-90.58,15.06-227.65-123.01-227.65h-115.11v318.26h171.7Z"/>
        <path class="cls-1" d="M1478.93,3017.95c156.65-10.09,266.12,59.88,300.02,193.41,52.56,207.07-33.01,451.77-320.64,431.77-357.74-24.88-333.02-602.4,20.62-625.18ZM1486.71,3035.05c-223.12,14.35-242.15,317.69-189.26,458.27,62.51,166.15,289,181.61,381.94,28.95,88-144.54,73.54-504.35-192.68-487.22Z"/>
        <path class="cls-1" d="M3562.97,3153.66l-18.97,3.85c-2.21-15.12-2.11-59.71-11.81-70.07-18.3-19.53-94.15-44-123.33-45.81-63.72-3.95-132.62,24.58-153.8,79.83-65.63,171.18,178.16,145.86,277.25,215.69,59.11,41.66,79.02,102.02,65.28,166.84-29.99,141.55-260.77,156.36-384.06,109.3-15.4-5.88-54.16-22.2-56.12-36.34-2.17-15.69-2.14-59.96.05-75.66.71-5.06-.05-9.47,6.51-11.41l13.18-.42c-5.24,42.02,2.62,55.85,37.2,82.04,127.9,96.86,336.77,40.64,317.87-121.34-17.97-154.06-371.4-72-354.99-280.61,12.15-154.4,211.12-159.82,343.47-133.63,8.19,1.62,32.15,4.88,34.48,10.83l7.79,106.92Z"/>
        <path class="cls-1" d="M2065.04,3023.72l-2.29,10.57-67.91,6.58c4.02,111.51-5.43,225.99-.19,337.19,4.49,95.22,18.52,212.13,147.48,233.41,340.5,56.19,227.4-390.42,246.44-555.04.92-26.99-74.35-11.09-83.75-22.24l-1.73-10.46h191.21l-1.73,10.46-4.71,2.71c-19.73,2.78-47.03,1.04-65.77,3.92-4.45.69-7.88,1.24-9.18,5.63-5.42,110.67,5.39,224.57-.59,334.86-6.63,122.49-41.56,243.35-204.89,254.93-384.27,27.24-256.31-378.46-279.06-583.33.29-19.91-59.95-13.31-62.34-15.51l.02-13.67h199.01Z"/>
        <path class="cls-1" d="M1171.44,3026.06l11.2,126.19-18.98,3.84-15.63-112.92h-171.7v574.92l70.26,3.44-.02,13.67h-199.01l3.8-12.07c13.14-3.46,62.54-.28,62.54-17.02v-562.94h-171.7l-15.63,112.92-18.96-3.85,11.18-126.18h452.66Z"/>
      </g>
      <g>
        <path class="cls-1" d="M2707.64,1065.45v233.38l70.71,3.66-.02,14.57h-212.06l1.84-11.15,59.62-9.64,5.34-6.43-.24-594.54c-4.84-22.38-71.94.41-66.56-27.32h288.98c43.76,0,118.41,26.72,147.71,56.44,61.28,62.15,52.1,209.01-6.28,271.79-67.76,72.87-191.28,69.24-289.03,69.24ZM2707.64,1050.87h101.87c158.19,0,181.58-169.89,153.11-272.84-30.14-108.98-151.67-97.48-254.98-99.1v371.95Z"/>
        <path class="cls-1" d="M1160.85,667.98l12.61,125.83c-.74,8.25-12.39,12.39-20.88,12.74l-16.68-120.33h-291.06v299.02h259.88c15.31,0,9.46-46.3,10.44-56.48,1.41-14.75,1.92-23.72,20.75-20.09v156.8l-16.61,3.63-4.18-65.62h-270.27v295.37h320.17l16.66-149.49,20.21,4.1-11.91,154.52-6.25,9.11h-476.1l1.84-11.15,58.83-10.39,6.09-16.54-.24-576.39-4.77-15.86-61.78-4.18.02-14.57h453.23Z"/>
        <path class="cls-1" d="M1775.63,823.3l-20.15,4.19-11.47-93.87c-96.12-74.51-246.24-75.87-333.55,11.95-96.2,96.76-106.34,304.78-66.72,422.95,53.88,160.72,203.97,145.28,361.78,125.71l3.66-220.11c-7.9-20.24-88.42,4.84-90.92-24.15l191.27-3.65-.64,14.03-34.12,4.72-6.84,8.59-.44,223.89c-198.54,30.99-427.34,62.86-497.34-148.35-34.58-104.36-23.99-261.43,41.22-355.6,90.47-130.65,256.24-146.73,415.03-113.8,13.85,2.87,35,3.41,39.69,16.25l9.55,127.27Z"/>
        <path class="cls-1" d="M2063.15,667.98l-1.84,11.15-5.05,2.87c-23.31.56-46.96,1.23-70.01,4.3-5.54.74-7.4-2.38-6.19,5.3l220.25,388.44,195.55-381.23c-.11-9.16-16.13-10.56-24.05-11.61-13.61-1.79-77.69-2.57-82.28-8.07l-1.85-11.14h207.9l-1.84,11.15-60.81,9.57-224.25,407.75v202.38l78.98,3.67c1.74,4.07-1.78,14.57-6.22,14.57h-205.82l4.05-12.86c14.78-4.56,56.63-.26,61.64-15.23l-.1-191.71-240.45-409.04-49.69-5.68.02-14.57h212.06Z"/>
        <path class="cls-1" d="M3589.15,667.98l12.61,125.83c-.74,8.25-12.39,12.39-20.88,12.74l-16.68-120.33h-187.11v612.62l78.98,3.67c1.74,4.07-1.78,14.57-6.22,14.57h-205.82l4.05-12.86c10.08-2.75,62.48-3.27,62.48-14.49v-603.5h-182.95l-16.68,120.33-16.75-5.54,8.49-133.03h486.49Z"/>
      </g>
      <g>
        <path class="cls-1" d="M1790.83,2271.77v324.03l103.89,5.09c2.42,5.65-2.47,20.23-8.63,20.23h-285.77l2.55-15.48,7.05-3.94c18.72-2.83,71.7-1.43,79.91-15.99l-2.33-833.4c-16.12-19.59-114.17,1.1-84.31-32.39h392.57c47.44,0,150.62,30.94,187.77,58.09,90.27,65.97,90.06,229.07,57.67,319.17-63.48,176.63-272.28,176.41-450.39,174.59ZM1790.83,2251.52h141.44c217.79,0,252.62-219.05,219.67-364.79-37.5-165.88-205.43-149.28-361.11-151.63v516.42Z"/>
        <path class="cls-1" d="M1438.67,1719.91l16.55,186.68-28.06,5.71-23.13-167.07h-398.34v415.16h360.82c5.64-3.19,7.56-6.96,8.68-12.64,5.35-26.93,3.45-65.66,5.78-93.71l23.07.02v215.17l-14.35,7.57c-14.85-2.82-6.09-74.26-14.52-91.11h-369.48v410.1h438.76l28.93-207.59,26.49,9.94-20.78,222.96h-669.68l2.56-15.47,80.18-10.69,9.64-11.8-2.51-833.2-84.24-12.19-5.63-17.84h629.27Z"/>
        <path class="cls-1" d="M3481.54,1749.16l18.42,183.73-26.01,8.07-23.24-136.93c-237.95-142.78-475.67-59.75-552.97,178.5-46.74,144.06-54.17,437.59,70.85,553.15,121.51,112.31,357.41,61.92,510.79,37.94l2.3,19.77c-259.49,42.37-579.8,85.68-682.22-187.85-62.11-165.89-42.38-420.22,88.42-558.22,148.79-156.97,387.17-149.39,593.65-98.17Z"/>
        <path class="cls-1" d="M2651.02,1719.91l-2.56,15.48-95.58,9.84v850.57l98.17,5.09-.03,20.23h-294.43l2.55-15.48,7.05-3.94c18.72-2.83,71.7-1.43,79.91-15.99l-2.34-833.39-87.2-12.17.03-20.23h294.43Z"/>
      </g>
    </g>
  </g>
</svg>