<svg xmlns="http://www.w3.org/2000/svg" width="386" height="342" fill="none"><path fill="#fff" d="M378.768 1.32c-4.44-1.936-9.456-.68-12.512 3.12C328.352 51.496 217.4 58.6 184.288 59.664c-8.016.256-16.28 1.24-24.536 2.928C-4.784 96.088-2.288 217.104 2.384 253.392c.776 6 4.808 10.896 10.52 12.792 5.664 1.888 11.752.36 15.904-3.936 19.224-19.92 61.368-55.752 127.616-71.88 27.376-6.664 53.344-18.88 76.456-32.888-27 20.512-61.848 42.656-105.944 63.36-44.208 20.768-76.688 56.768-88.6 71.272a15.546 15.546 0 0 0-3.384 11.864c.576 4.288 2.944 8.184 6.496 10.704 11.312 8.032 24.792 14.504 40.048 19.264a169.252 169.252 0 0 0 50.288 7.632c34.24 0 68.512-10.296 98.632-30.256C346.128 234.616 377.928 63.072 384.912 12.336c.656-4.704-1.816-9.128-6.144-11.016z"/></svg>