<svg xmlns="http://www.w3.org/2000/svg" width="512" height="512" fill="none"><path fill="#fff" d="M506.56 213.029 394.365 327.801l26.495 162.103c1.153 7.088-1.621 14.252-7.168 18.486a17.4 17.4 0 0 1-10.591 3.61c-2.864 0-5.746-.718-8.376-2.174L256 433.293l-138.707 76.514c-6.052 3.365-13.419 2.817-18.967-1.436-5.547-4.234-8.321-11.398-7.168-18.486l26.495-162.103L5.44 213.029c-4.899-5.028-6.682-12.551-4.557-19.374 2.126-6.824 7.763-11.833 14.554-12.873l155.062-23.627L239.844 9.682c6.07-12.91 26.243-12.91 32.312 0l69.345 147.473 155.062 23.627c6.791 1.04 12.428 6.03 14.554 12.873 2.125 6.842.342 14.327-4.557 19.374z"/></svg>