<?xml version="1.0" encoding="UTF-8"?>
<svg id="Layer_2" data-name="Layer 2" xmlns="http://www.w3.org/2000/svg" viewBox="0 0 100.94 42.32">
  <defs>
    <style>
      .cls-1 {
        fill: #fff;
        stroke: #fff;
        stroke-miterlimit: 10;
        stroke-width: .75px;
      }
    </style>
  </defs>
  <path class="cls-1" d="M.38,1.49v-.21h10.92v2.88h-.17c0-1.54-1.03-2.31-3.08-2.31h-3.82v8.32h3.36c.66,0,1.26-.11,1.78-.32s.82-.71.9-1.48h.19v4.15h-.19c-.07-.47-.22-.83-.42-1.09s-.41-.42-.62-.5-.38-.12-.54-.12c-.3-.05-.61-.07-.93-.07h-3.52v6.5c0,.49.09.91.28,1.27.19.36.62.53,1.3.53h2.72c.65,0,1.19-.1,1.62-.29s.76-.46,1-.8c.24-.34.45-.75.62-1.23h.17l-.63,2.87H.38v-.2h.25c.39,0,.77-.16,1.14-.47s.56-.83.56-1.54V3.58c0-.56-.13-1.05-.38-1.47s-.69-.62-1.32-.62h-.25Z"/>
  <path class="cls-1" d="M35.22,5.09h-.2c-.27-1.19-.97-2.12-2.11-2.78-1.14-.66-2.45-.99-3.92-.99-.76,0-1.58.12-2.46.35-.87.24-1.73.67-2.55,1.29s-1.52,1.52-2.06,2.7c-.55,1.18-.82,2.67-.82,4.46,0,2.85.66,5.13,2,6.84,1.33,1.71,3.47,2.56,6.41,2.56,1.16,0,2.01-.08,2.56-.24s.9-.37,1.05-.65c.15-.27.23-.64.23-1.11v-3.36c0-.8-.17-1.32-.52-1.58s-.86-.43-1.55-.51v-.21h5.95v.21c-.55.06-.97.18-1.27.35-.3.18-.5.41-.6.69s-.15.65-.15,1.12v5.1c-1.82.49-3.7.73-5.64.73-1,0-1.99-.08-2.97-.25s-2-.53-3.06-1.11-2-1.42-2.81-2.54c-1.22-1.68-1.83-3.58-1.83-5.71,0-1.23.23-2.44.69-3.61.46-1.17,1.12-2.21,1.99-3.14.87-.92,1.93-1.65,3.18-2.19,1.25-.53,2.64-.8,4.16-.8.59,0,1.16.04,1.73.12s1.4.24,2.52.48c.44.1.75.15.94.15.41,0,.7-.2.9-.61h.2v4.2Z"/>
  <path class="cls-1" d="M59.75,1.28v.21c-.55,0-1.03.14-1.46.39-.43.25-.76.51-1,.78s-.5.59-.77.98l-4.28,6.44v7.33c0,.65.2,1.15.59,1.47.39.33.87.5,1.42.52v.2h-5.81v-.2c.59-.02,1.05-.18,1.4-.5.34-.32.52-.81.52-1.49v-7.02l-4.66-6.99c-.5-.75-.94-1.26-1.34-1.5s-.93-.38-1.6-.4v-.21h6.5v.21c-.66.02-1.09.17-1.27.43-.19.26-.28.51-.28.74,0,.27.16.64.48,1.12l3.82,5.66,3.38-5.1c.51-.76.77-1.35.77-1.75,0-.28-.07-.5-.2-.66-.14-.16-.28-.26-.42-.31s-.29-.09-.45-.12v-.21h4.65Z"/>
  <path class="cls-1" d="M66.1,1.49v-.21h6c1,0,1.89.14,2.65.41.77.27,1.41.65,1.91,1.12.51.47.89,1.01,1.14,1.6.25.59.38,1.22.38,1.87s-.12,1.25-.36,1.85c-.24.59-.61,1.12-1.11,1.58-.51.46-1.17.83-1.99,1.1-.82.27-1.76.41-2.83.41-.34,0-.99-.05-1.96-.15v6.32c0,1.3.66,1.97,1.99,2.01v.2h-5.83v-.2c.57-.02,1.04-.18,1.41-.49.37-.31.55-.82.55-1.52V3.53c0-.42-.07-.77-.2-1.06s-.29-.48-.47-.6c-.18-.12-.38-.21-.6-.27-.22-.06-.37-.1-.45-.11h-.25ZM69.94,1.93v8.63c.64.12,1.27.17,1.89.17,1.18,0,2.19-.3,3.01-.91.82-.61,1.24-1.74,1.24-3.39,0-1.36-.36-2.48-1.09-3.35-.73-.87-1.83-1.31-3.3-1.31-.57,0-1.16.05-1.75.16Z"/>
  <path class="cls-1" d="M100.57,4.85h-.2c-.09-1.19-.44-1.97-1.04-2.32-.61-.35-1.35-.53-2.24-.53h-3.64v15.38c0,1.3.66,1.97,1.99,2.01v.2h-5.83v-.2c.55-.02,1.01-.18,1.39-.48.38-.3.57-.81.57-1.54V2h-3.64c-.89,0-1.63.18-2.23.53-.6.35-.95,1.12-1.05,2.32h-.2V.38h.2c.13.21.25.36.35.46s.23.18.39.26.34.12.55.15c.21.03.46.04.75.04h11.86c.79,0,1.4-.3,1.84-.91h.2v4.48Z"/>
  <path class="cls-1" d="M.38,29.64v-.14h7.35v1.91h-.12c0-1.02-.69-1.53-2.08-1.53h-2.57v5.51h2.26c.45,0,.85-.07,1.2-.21.35-.14.55-.47.6-.98h.13v2.75h-.13c-.05-.31-.15-.55-.28-.72-.14-.17-.28-.28-.41-.33s-.26-.08-.36-.08c-.2-.03-.41-.05-.63-.05h-2.37v4.3c0,.32.06.6.19.84.13.24.42.35.87.35h1.83c.44,0,.8-.06,1.09-.19.28-.13.51-.3.67-.53s.3-.5.41-.81h.12l-.43,1.9H.38v-.13h.17c.26,0,.52-.1.77-.31s.38-.55.38-1.02v-9.13c0-.37-.08-.7-.26-.97-.17-.27-.47-.41-.89-.41h-.17Z"/>
  <path class="cls-1" d="M9.33,29.64v-.14h4.04c.67,0,1.27.09,1.79.27.52.18.95.43,1.29.74.34.31.6.66.77,1.06.17.39.26.81.26,1.24s-.08.83-.24,1.22c-.16.39-.41.74-.75,1.04-.34.3-.79.55-1.34.73-.55.18-1.19.27-1.91.27-.23,0-.67-.03-1.32-.1v4.18c0,.86.45,1.31,1.34,1.33v.13h-3.92v-.13c.39-.01.7-.12.95-.33.25-.2.37-.54.37-1.01v-9.17c0-.28-.04-.51-.13-.7-.09-.19-.19-.32-.31-.4-.12-.08-.25-.14-.4-.18-.15-.04-.25-.06-.31-.07h-.17ZM11.92,29.93v5.71c.43.08.85.12,1.27.12.8,0,1.47-.2,2.03-.61.56-.4.83-1.15.83-2.24,0-.9-.24-1.64-.73-2.22-.49-.58-1.23-.87-2.22-.87-.38,0-.78.04-1.18.11Z"/>
  <path class="cls-1" d="M22.69,29.5v.14c-.37,0-.68.1-.94.3s-.38.54-.38,1.01v9.2c0,.47.14.81.41,1.02.27.21.58.32.91.32v.13h-3.91v-.13c.36,0,.67-.1.92-.31s.39-.55.39-1.02v-9.2c0-.5-.13-.85-.39-1.04-.26-.19-.57-.28-.92-.28v-.14h3.91Z"/>
  <path class="cls-1" d="M35.23,32.22h-.14c-.11-.59-.39-1.09-.85-1.51-.46-.41-.99-.71-1.59-.9-.6-.19-1.15-.28-1.67-.28-.71,0-1.37.15-2,.44-.62.29-1.16.71-1.61,1.24-.45.54-.8,1.18-1.05,1.93-.25.75-.38,1.56-.38,2.44s.12,1.64.36,2.37.6,1.36,1.06,1.89c.47.54,1.01.94,1.62,1.21.61.27,1.29.41,2.04.41.62,0,1.31-.12,2.06-.37s1.42-.67,2.03-1.25v.47c-.74.56-1.42.98-2.04,1.24-.62.26-1.38.4-2.31.4-.97,0-1.86-.17-2.66-.52-.8-.35-1.48-.82-2.03-1.41-.55-.59-.97-1.26-1.26-2-.28-.74-.43-1.5-.43-2.29,0-1.18.3-2.28.89-3.29.59-1.01,1.39-1.81,2.4-2.4,1.01-.59,2.11-.88,3.29-.88.73,0,1.51.11,2.34.32l.87.24c.17.03.31.05.43.05.22,0,.36-.03.44-.09.07-.06.13-.18.17-.34h.13l-.12,2.9Z"/>
  <path class="cls-1" d="M53.01,31.86h-.13c-.06-.79-.3-1.3-.7-1.53-.41-.23-.91-.35-1.51-.35h-2.45v10.18c0,.86.45,1.31,1.34,1.33v.13h-3.92v-.13c.37-.01.68-.12.93-.32.25-.2.38-.54.38-1.02v-10.18h-2.45c-.6,0-1.1.12-1.5.35s-.64.74-.71,1.53h-.13v-2.96h.13c.09.14.17.24.23.3s.15.12.26.17.23.08.37.1c.14.02.31.03.51.03h7.98c.53,0,.94-.2,1.24-.6h.13v2.96Z"/>
  <path class="cls-1" d="M66.96,35.58c0,1.14-.29,2.19-.86,3.17-.57.98-1.35,1.75-2.34,2.33s-2.08.87-3.28.87-2.31-.29-3.31-.87-1.79-1.36-2.37-2.34c-.58-.98-.87-2.05-.87-3.21,0-.89.17-1.72.51-2.51s.82-1.46,1.44-2.04c.62-.58,1.32-1.03,2.11-1.35s1.61-.48,2.47-.48,1.65.15,2.43.46c.78.3,1.47.74,2.09,1.32s1.1,1.26,1.45,2.05c.35.79.53,1.66.53,2.6ZM65.49,35.61c0-1.61-.29-2.87-.87-3.79-.58-.91-1.25-1.52-2.01-1.83s-1.47-.46-2.14-.46c-.52,0-1.06.08-1.62.25-.56.17-1.1.47-1.63.92-.53.45-.96,1.07-1.3,1.88-.34.81-.51,1.8-.51,2.99,0,1.04.14,1.95.42,2.73.28.78.67,1.41,1.16,1.9.49.49,1.04.85,1.63,1.06.59.22,1.21.32,1.85.32.57,0,1.16-.1,1.74-.3.59-.2,1.13-.53,1.61-.98.49-.45.88-1.07,1.19-1.84.3-.78.46-1.72.46-2.84Z"/>
  <path class="cls-1" d="M80.84,41.62h-2.59v-2.01l-.04-.03c-.36.82-.89,1.42-1.6,1.79-.71.38-1.45.57-2.23.57-.88,0-1.66-.21-2.36-.62-.7-.41-1.21-.92-1.54-1.52-.23-.43-.38-.87-.44-1.34-.06-.46-.09-.94-.09-1.44v-6.03c0-.36-.07-.67-.22-.91-.15-.25-.5-.39-1.06-.44v-.14h3.87v.14c-.57.07-.93.23-1.09.49-.16.26-.23.55-.23.86v5.93c0,1.21.13,2.1.38,2.67.27.61.67,1.1,1.21,1.44.53.34,1.14.52,1.82.52.28,0,.62-.05,1.01-.15.39-.1.76-.26,1.1-.49,1.02-.69,1.53-1.79,1.53-3.3v-6.62c0-.34-.08-.63-.23-.89-.16-.26-.52-.41-1.1-.46v-.14h3.94v.14c-.57.03-.94.18-1.1.47s-.24.57-.24.86v9.18c0,.32.05.57.16.75s.26.31.45.39.43.14.71.19v.13Z"/>
  <path class="cls-1" d="M82.35,29.68h-.17v-.17h4.27c.69,0,1.27.1,1.74.31s.85.47,1.11.79.46.66.57,1.02.17.71.17,1.05c0,.44-.09.86-.28,1.26-.19.4-.47.75-.86,1.04-.39.29-.87.49-1.45.59v.03c.74.35,1.42,1.05,2.04,2.09l1.11,1.85c.5.83.91,1.35,1.21,1.57.3.22.6.34.9.37v.13h-2.24c-.1-.12-.18-.24-.27-.35-.08-.11-.17-.23-.27-.36-.06-.08-.14-.21-.25-.37s-.17-.26-.2-.28l-1.47-2.39c-.3-.49-.6-.88-.91-1.19s-.6-.52-.87-.65c-.27-.13-.51-.21-.72-.25-.21-.03-.47-.05-.76-.05v4.44c0,.86.45,1.31,1.34,1.33v.13h-3.93v-.13c.25-.01.46-.06.65-.14.19-.08.35-.22.47-.41.13-.2.19-.46.19-.79v-9.17c0-.48-.12-.82-.36-1.02s-.5-.3-.79-.3ZM84.77,35.4h.7c.74,0,1.34-.1,1.81-.31.47-.21.81-.51,1.02-.89.21-.39.32-.86.32-1.42,0-.47-.1-.92-.28-1.37-.19-.45-.51-.82-.97-1.13-.46-.3-1.07-.46-1.84-.46-.31,0-.57.02-.77.07v5.51Z"/>
  <path class="cls-1" d="M99.81,36.76c-.5-.49-1.2-.97-2.11-1.46-.54-.3-.97-.54-1.29-.74-.32-.19-.59-.4-.83-.63-.23-.22-.41-.48-.53-.78-.12-.29-.18-.63-.18-1.01,0-.49.1-.92.3-1.3.2-.38.49-.68.85-.9.37-.22.79-.33,1.26-.33.73,0,1.31.22,1.75.66.44.44.7.96.78,1.54h.13v-2.59h-.13c-.07.25-.19.37-.38.37-.15,0-.27-.02-.36-.07-.57-.18-1.12-.27-1.67-.27-.72,0-1.35.16-1.92.47-.56.31-1,.73-1.31,1.26-.31.52-.46,1.07-.46,1.64,0,.49.09.93.26,1.31.17.38.41.71.7.99.29.28.58.51.87.68.28.18.72.42,1.31.74.86.45,1.5.89,1.92,1.32.42.43.63.99.63,1.67,0,.33-.07.66-.22.99-.15.33-.41.61-.78.84-.38.23-.88.35-1.5.35-.83,0-1.54-.23-2.12-.68-.58-.46-.97-1.13-1.17-2.02h-.14v2.8h.2c.03-.13.07-.24.09-.3.04-.08.11-.12.23-.12.06,0,.18.03.34.08.4.19.8.34,1.19.45.39.11.84.16,1.35.16.81,0,1.49-.15,2.03-.46.55-.31.95-.7,1.23-1.18.27-.48.41-.98.41-1.49,0-.84-.25-1.51-.75-2Z"/>
</svg>